<?xml version="1.0" encoding="UTF-8" standalone="no"?>
<!-- Created with Inkscape (http://www.inkscape.org/) -->

<svg
   version="1.1"
   id="svg2"
   width="1333.3333"
   height="1152.192"
   viewBox="0 0 1333.3333 1152.192"
   sodipodi:docname="PICKIES LANDING PAGE FINAL.ai"
   xmlns:inkscape="http://www.inkscape.org/namespaces/inkscape"
   xmlns:sodipodi="http://sodipodi.sourceforge.net/DTD/sodipodi-0.dtd"
   xmlns="http://www.w3.org/2000/svg"
   xmlns:svg="http://www.w3.org/2000/svg">
  <defs
     id="defs6">
    <clipPath
       clipPathUnits="userSpaceOnUse"
       id="clipPath30">
      <path
         d="m 0,3626.928 h 1000 v 864.144 H 0 Z"
         id="path28" />
    </clipPath>
  </defs>
  <sodipodi:namedview
     id="namedview4"
     pagecolor="#ffffff"
     bordercolor="#000000"
     borderopacity="0.25"
     inkscape:showpageshadow="2"
     inkscape:pageopacity="0.0"
     inkscape:pagecheckerboard="0"
     inkscape:deskcolor="#d1d1d1"
     showgrid="false"
     showguides="true" />
  <g
     id="g10"
     inkscape:groupmode="layer"
     inkscape:label="Page 1"
     transform="matrix(1.3333333,0,0,-1.3333333,0,5988.0958)">
    <g
       id="g24">
      <g
         id="g26"
         clip-path="url(#clipPath30)">
        <g
           id="g32"
           transform="translate(664.6914,3774.3633)">
          <path
             d="M 0,0 C 0,191.769 155.46,347.229 347.229,347.229 V 0.441 Z"
             style="fill:#fffded;fill-opacity:1;fill-rule:nonzero;stroke:none"
             id="path34" />
        </g>
        <path
           d="M 1009.229,3625.63 H 664.692 v 150.735 h 344.537 z"
           style="fill:#fffded;fill-opacity:1;fill-rule:nonzero;stroke:none"
           id="path36" />
        <g
           id="g38"
           transform="translate(611.7002,4521.9009)">
          <path
             d="M 0,0 C 0,-221.073 179.216,-400.289 400.289,-400.289 V -0.508 Z"
             style="fill:#beacd3;fill-opacity:1;fill-rule:nonzero;stroke:none"
             id="path40" />
        </g>
        <g
           id="g42"
           transform="translate(460.5068,3626.7275)">
          <path
             d="m 0,0 c -66.073,0 -119.636,53.563 -119.636,119.636 0,66.073 53.563,119.636 119.636,119.636 66.073,0 119.637,-53.563 119.637,-119.636 C 119.637,53.563 66.073,0 0,0"
             style="fill:#fffded;fill-opacity:1;fill-rule:nonzero;stroke:none"
             id="path44" />
        </g>
        <g
           id="g46"
           transform="translate(460.5068,3626.7275)">
          <path
             d="m 0,0 c -66.073,0 -119.636,53.563 -119.636,119.636 0,66.073 53.563,119.636 119.636,119.636"
             style="fill:#beacd3;fill-opacity:1;fill-rule:nonzero;stroke:none"
             id="path48" />
        </g>
        <g
           id="g50"
           transform="translate(650.5859,4329.0786)">
          <path
             d="m 0,0 c 0,-47.54 -38.539,-86.079 -86.079,-86.079 -47.539,0 -86.078,38.539 -86.078,86.079 0,47.54 38.539,86.078 86.078,86.078 C -38.539,86.078 0,47.54 0,0"
             style="fill:#f7b76a;fill-opacity:1;fill-rule:nonzero;stroke:none"
             id="path52" />
        </g>
        <g
           id="g54"
           transform="translate(650.5859,4329.0786)">
          <path
             d="m 0,0 c 0,-47.54 -38.539,-86.079 -86.079,-86.079 -47.539,0 -86.078,38.539 -86.078,86.079"
             style="fill:#fffded;fill-opacity:1;fill-rule:nonzero;stroke:none"
             id="path56" />
        </g>
        <g
           id="g58"
           transform="translate(713.0078,4521.9009)">
          <path
             d="M 0,0 C 0,-165.123 133.858,-298.981 298.981,-298.981 V -0.38 Z"
             style="fill:#f7b76a;fill-opacity:1;fill-rule:nonzero;stroke:none"
             id="path60" />
        </g>
        <g
           id="g62"
           transform="translate(-24.3672,3622.5938)">
          <path
             d="M 0,0 C 165.123,0 298.981,133.859 298.981,298.982 H 0.38 Z"
             style="fill:#beacd3;fill-opacity:1;fill-rule:nonzero;stroke:none"
             id="path64" />
        </g>
        <g
           id="g66"
           transform="translate(-20.9746,3718.5244)">
          <path
             d="M 0,0 C 110.336,0 199.78,90.909 199.78,203.051 H 0.253 Z"
             style="fill:#f7b76a;fill-opacity:1;fill-rule:nonzero;stroke:none"
             id="path68" />
        </g>
        <g
           id="g70"
           transform="translate(744.7002,3747.9453)">
          <path
             d="M 0,0 C 0,156.418 119.639,283.221 267.221,283.221 V 0.36 Z"
             style="fill:#f7b76a;fill-opacity:1;fill-rule:nonzero;stroke:none"
             id="path72" />
        </g>
        <path
           d="M 1009.849,3626.63 H 744.701 v 122.948 h 265.148 z"
           style="fill:#f7b76a;fill-opacity:1;fill-rule:nonzero;stroke:none"
           id="path74" />
        <g
           id="g76"
           transform="translate(-24.1182,4124.7388)">
          <path
             d="M 0,0 C 112.203,0 203.162,-90.959 203.162,-203.163 H 0.258 Z"
             style="fill:#fffded;fill-opacity:1;fill-rule:nonzero;stroke:none"
             id="path78" />
        </g>
        <path
           d="m 179.7,4490.592 h 95 v -570 h -95 z"
           style="fill:#f7b76a;fill-opacity:1;fill-rule:nonzero;stroke:none"
           id="path80" />
        <g
           id="g82"
           transform="translate(278.6816,4521.9717)">
          <path
             d="M 0,0 C 0,-165.123 -133.858,-298.981 -298.981,-298.981 V -0.38 Z"
             style="fill:#beacd3;fill-opacity:1;fill-rule:nonzero;stroke:none"
             id="path84" />
        </g>
        <g
           id="g86"
           transform="translate(556,4553.8892)">
          <path
             d="M 0,0 C 0,-155.744 -126.256,-282 -282,-282 V -0.358 Z"
             style="fill:#fffded;fill-opacity:1;fill-rule:nonzero;stroke:none"
             id="path88" />
        </g>
      </g>
    </g>
  </g>
</svg>
