<?xml version="1.0" encoding="UTF-8" standalone="no"?>
<!-- Created with Inkscape (http://www.inkscape.org/) -->

<svg
   version="1.1"
   id="svg2"
   width="424.54196"
   height="424.54236"
   viewBox="0 0 424.54198 424.54236"
   sodipodi:docname="PICKIES LANDING PAGE FINAL.ai"
   xmlns:inkscape="http://www.inkscape.org/namespaces/inkscape"
   xmlns:sodipodi="http://sodipodi.sourceforge.net/DTD/sodipodi-0.dtd"
   xmlns="http://www.w3.org/2000/svg"
   xmlns:svg="http://www.w3.org/2000/svg">
  <defs
     id="defs6">
    <clipPath
       clipPathUnits="userSpaceOnUse"
       id="clipPath172">
      <path
         d="M 0,4738 H 1000 V 0 H 0 Z"
         id="path170" />
    </clipPath>
  </defs>
  <sodipodi:namedview
     id="namedview4"
     pagecolor="#ffffff"
     bordercolor="#000000"
     borderopacity="0.25"
     inkscape:showpageshadow="2"
     inkscape:pageopacity="0.0"
     inkscape:pagecheckerboard="0"
     inkscape:deskcolor="#d1d1d1"
     showgrid="false"
     showguides="true" />
  <g
     id="g10"
     inkscape:groupmode="layer"
     inkscape:label="Page 1"
     transform="matrix(1.3333333,0,0,-1.3333333,-205.33314,4348.2709)">
    <g
       id="g166">
      <g
         id="g168"
         clip-path="url(#clipPath172)">
        <g
           id="g174"
           transform="translate(311.3066,3251.415)">
          <path
             d="m 0,0 17.511,-47.16 30.787,39.785 c 9.557,12.352 29.276,3.703 26.663,-11.695 l -8.415,-49.597 46.555,19.062 c 14.454,5.917 27.206,-11.431 17.244,-23.46 l -32.086,-38.745 49.848,-6.77 c 15.476,-2.102 17.846,-23.502 3.205,-28.939 l -47.161,-17.51 39.786,-30.787 c 12.351,-9.558 3.703,-29.277 -11.696,-26.663 l -49.596,8.415 19.061,-46.555 c 5.918,-14.454 -11.431,-27.206 -23.46,-17.244 l -38.744,32.086 -6.771,-49.849 C 30.63,-311.102 9.229,-313.472 3.793,-298.83 l -17.511,47.16 -30.787,-39.785 c -9.558,-12.352 -29.276,-3.703 -26.663,11.695 l 8.415,49.597 -46.555,-19.062 c -14.454,-5.918 -27.206,11.431 -17.244,23.46 l 32.086,38.744 -49.848,6.771 c -15.476,2.102 -17.846,23.502 -3.205,28.938 l 47.161,17.511 -39.786,30.787 c -12.351,9.558 -3.703,29.277 11.696,26.663 l 49.596,-8.415 -19.061,46.555 c -5.918,14.454 11.431,27.206 23.46,17.244 l 38.744,-32.086 6.771,49.849 C -26.837,12.271 -5.437,14.642 0,0"
             style="fill:#fffded;fill-opacity:1;fill-rule:nonzero;stroke:none"
             id="path176" />
        </g>
      </g>
    </g>
  </g>
</svg>
